<?xml version="1.0" standalone="no"?>
<!DOCTYPE svg PUBLIC "-//W3C//DTD SVG 20010904//EN"
 "http://www.w3.org/TR/2001/REC-SVG-20010904/DTD/svg10.dtd">
<svg version="1.0" xmlns="http://www.w3.org/2000/svg"
 width="850.000000pt" height="155.000000pt" viewBox="0 0 850.000000 155.000000"
 preserveAspectRatio="xMidYMid meet">

<g transform="translate(0.000000,155.000000) scale(0.100000,-0.100000)"
fill="#000000" stroke="none">
<path d="M2305 1200 c-164 -33 -295 -143 -295 -248 0 -51 23 -78 75 -88 32 -6
36 -9 30 -28 -4 -11 -9 -66 -12 -122 -5 -87 -3 -107 15 -147 29 -65 81 -90
173 -85 l68 4 18 -40 c20 -46 65 -76 112 -76 24 0 42 9 67 34 44 44 44 61 -1
62 -24 0 -44 9 -65 29 -35 33 -37 46 -11 62 34 21 100 134 125 213 69 218 27
385 -107 425 -54 16 -127 18 -192 5z m152 -64 c27 -23 28 -29 31 -124 4 -117
-19 -228 -69 -330 -25 -50 -34 -62 -47 -56 -10 4 -41 10 -70 12 l-52 4 6 66
c14 143 77 321 137 384 28 30 20 38 -34 38 -78 0 -158 -74 -207 -191 -29 -70
-42 -79 -42 -27 0 67 23 122 70 169 54 54 111 77 192 78 46 1 62 -3 85 -23z
m-138 -555 c9 -6 10 -11 2 -15 -14 -9 -51 2 -51 15 0 11 30 12 49 0z"/>
<path d="M4672 1177 c-30 -16 -86 -35 -125 -41 -62 -11 -72 -15 -75 -34 -3
-20 1 -22 37 -22 29 0 41 -4 41 -14 0 -12 -102 -504 -117 -564 -5 -23 -4 -23
73 -20 l78 3 73 345 c40 190 72 352 70 360 -2 12 -12 10 -55 -13z"/>
</g>
</svg>
